<svg class="svg-icon" style="width: 1em; height: 1em;vertical-align: middle;fill: currentColor;overflow: hidden;" viewBox="0 0 1024 1024" version="1.1" xmlns="http://www.w3.org/2000/svg"><path d="M887 390.8v-0.7c0-0.7-0.1-1.4-0.1-2.1v-0.3c-0.1-0.8-0.2-1.7-0.3-2.5v-0.3c-0.3-1.7-0.7-3.4-1.3-5-0.6-1.7-1.2-3.3-2-4.8 0-0.1-0.1-0.1-0.1-0.2-0.8-1.5-1.6-2.9-2.6-4.3-0.1-0.1-0.2-0.3-0.3-0.4-0.5-0.6-1-1.3-1.5-1.9-0.1-0.1-0.2-0.2-0.2-0.3-0.5-0.6-1-1.1-1.5-1.6-0.1-0.1-0.2-0.2-0.3-0.4-0.6-0.6-1.2-1.1-1.8-1.7l-0.1-0.1-315-276.7c-0.1-0.1-0.2-0.1-0.2-0.2-0.5-0.5-1.1-0.9-1.7-1.4-0.1 0-0.1-0.1-0.2-0.1-0.6-0.5-1.3-0.9-2-1.4-0.1-0.1-0.2-0.1-0.3-0.2-1.4-0.9-2.8-1.7-4.3-2.4 0 0-0.1 0-0.1-0.1-2.3-1-4.6-1.8-7.1-2.4h-0.1c-1.5-0.3-3.1-0.6-4.7-0.7h-0.5c-0.6 0-1.3-0.1-1.9-0.1h-0.4-271.1c-71.4 0-129.5 58.1-129.5 129.5v613.1c0 71.4 58.1 129.5 129.5 129.5h492.4c71.4 0 129.5-58.1 129.5-129.5V391.3c-0.2-0.2-0.2-0.3-0.2-0.5zM572.1 194.1l183.4 161.1H572.1V194.1z m185.4 684.5H265.1c-31.7 0-57.5-25.8-57.5-57.5V208c0-31.7 25.8-57.5 57.5-57.5h235v240.7c0 19.9 16.1 36 36 36H815V821c0 31.8-25.8 57.6-57.5 57.6z"  /></svg>