<svg class="svg-icon" style="width: 1em;height: 1em;vertical-align: middle;fill: currentColor;overflow: hidden;" viewBox="0 0 1024 1024" version="1.1" xmlns="http://www.w3.org/2000/svg"><path d="M480 192a95.968 95.968 0 0 0-80.992 44.992A94.368 94.368 0 0 0 352 224c-52.64 0-96 43.36-96 96v116.992l-67.008 86.016c-40.864 52.864-38.112 128.736 6.016 178.976l76 86.016A223.424 223.424 0 0 0 439.008 864H608c123.36 0 224-100.64 224-224v-288c0-52.64-43.36-96-96-96-17.12 0-32.992 4.992-47.008 12.992A95.968 95.968 0 0 0 608 224c-17.12 0-32.992 4.992-47.008 12.992A95.968 95.968 0 0 0 480 192z m0 64c18.112 0 32 13.888 32 32v96h64v-64c0-18.112 13.888-32 32-32 18.112 0 32 13.888 32 32v64h64v-32c0-18.112 13.888-32 32-32 18.112 0 32 13.888 32 32v288c0 88.736-71.264 160-160 160h-168.992a159.04 159.04 0 0 1-120-54.016l-76-86.976a74.816 74.816 0 0 1-3.008-96l16-21.024V576h64v-256c0-18.112 13.888-32 32-32 18.112 0 32 13.888 32 32v64h64V288c0-18.112 13.888-32 32-32z"  /></svg>