<svg class="svg-icon" style="width: 1em; height: 1em;vertical-align: middle;fill: currentColor;overflow: hidden;" viewBox="0 0 1024 1024" version="1.1" xmlns="http://www.w3.org/2000/svg"><path d="M687.9 832.6c-2.4 0-4.7-0.1-7.1-0.3-21.3-1.9-40.6-11.9-54.3-28.3-28.4-33.8-23.9-84.4 9.9-112.7 16.4-13.7 37.1-20.3 58.4-18.4 21.3 1.9 40.6 11.9 54.3 28.3 13.7 16.4 20.3 37.1 18.4 58.4-1.9 21.3-11.9 40.6-28.3 54.3-14.6 12.2-32.6 18.7-51.3 18.7z m-0.3-128c-11.3 0-22 3.9-30.8 11.2-9.8 8.2-15.8 19.8-17 32.6-1.1 12.8 2.8 25.2 11 35s19.8 15.8 32.6 17c12.8 1.1 25.2-2.8 35-11s15.8-19.8 17-32.6c1.1-12.8-2.8-25.2-11-35s-19.8-15.8-32.6-17c-1.3-0.1-2.8-0.2-4.2-0.2zM336.2 832.6c-18.2 0-36.4-6.1-51.4-18.7-16.4-13.7-26.4-33-28.3-54.3s4.7-42 18.4-58.4 33-26.4 54.3-28.3c21.3-1.9 42 4.7 58.4 18.4 33.8 28.4 38.2 78.9 9.9 112.7-15.8 18.9-38.5 28.6-61.3 28.6z m0.1-128c-1.4 0-2.8 0.1-4.3 0.2-12.8 1.1-24.3 7.1-32.6 17-17 20.3-14.4 50.6 5.9 67.6s50.6 14.4 67.6-5.9c8.2-9.8 12.2-22.3 11-35-1.1-12.8-7.1-24.3-17-32.6-8.5-7.4-19.3-11.3-30.6-11.3z m48.9 89.1z" fill="#1E1E1E" /><path d="M512 544m-24 0a24 24 0 1 0 48 0 24 24 0 1 0-48 0Z" fill="#1E1E1E" /><path d="M798 660c-24.7-29.5-59.4-47.5-97.8-50.9-9.6-0.8-19.2-0.7-28.5 0.3l-55.6-66.3L791.6 334c51-60.8 43.1-151.8-17.7-202.9-3.3-2.7-7.5-4-11.7-3.7-4.2 0.4-8.1 2.4-10.9 5.7L511.7 418.7 272.3 133.4c-5.7-6.8-15.8-7.7-22.5-2-29.5 24.7-47.5 59.4-50.9 97.8s8.4 75.6 33.1 105.1l175.3 208.9-55.6 66.2c-9.2-1-18.6-1.1-28-0.2-38.3 3.4-73 21.4-97.8 50.9-51 60.8-43.1 151.8 17.8 202.9 26.9 22.6 59.8 33.6 92.4 33.6 41.1 0 82-17.5 110.4-51.4 32.1-38.2 40.8-88.4 27.8-133.1l37.3-44.5 37.7 45c-12.8 44.5-4 94.5 28 132.6 28.4 33.9 69.3 51.4 110.4 51.4 32.7 0 65.5-11 92.4-33.6 61-51.1 69-142.1 17.9-203z m-33.2-493.2c16.1 17.9 25.9 40.5 28 64.9 2.6 29.8-6.5 58.8-25.8 81.8L595.2 518.3l-62.7-74.7 232.3-276.8zM256.5 313.7c-36.2-43.1-34.2-105.8 2.3-146.6l232 276.5-62.7 74.7-171.6-204.6zM422 824.6c-39.7 47.3-110.5 53.5-157.8 13.8s-53.5-110.5-13.8-157.8c19.2-22.9 46.2-37 76-39.6 3.3-0.3 6.6-0.4 10-0.4 26.3 0 51.4 9.1 71.8 26.2 47.3 39.7 53.5 110.5 13.8 157.8z m-65.9-214.7h0.2c-0.1 0.1-0.1 0-0.2 0z m4.2 0.7c0.2 0 0.5 0.1 0.7 0.1-0.2 0-0.5-0.1-0.7-0.1z m4.3 0.8c0.2 0 0.4 0.1 0.6 0.1-0.2 0-0.4-0.1-0.6-0.1z m9 2.1c0.2 0.1 0.4 0.1 0.6 0.2-0.3-0.1-0.4-0.2-0.6-0.2z m4.1 1.1c0.2 0.1 0.5 0.1 0.7 0.2-0.2 0-0.5-0.1-0.7-0.2z m4.5 1.5c0.1 0 0.1 0 0.2 0.1-0.1-0.1-0.2-0.1-0.2-0.1z m90.8 91.6c0 0.1 0.1 0.2 0.1 0.3 0-0.1-0.1-0.2-0.1-0.3z m-4.7-12.4z m-8.2-16c-8.1-13.7-18.5-26.2-31.4-37-12.8-10.7-27-19-42.2-24.7l41.6-49.6 62.7 74.7-30.7 36.6z m51.6-61.5L449 543.2l62.7-74.7 62.7 74.7-62.7 74.6z m83.5-49.8l41.7 49.7c-15 5.7-29.1 13.9-41.8 24.5-12.9 10.9-23.5 23.5-31.6 37.4l-31-36.9 62.7-74.7z m72.5 42c-0.4 0.1-0.7 0.1-1.1 0.2 0.3-0.1 0.7-0.2 1.1-0.2z m-4.2 0.6c-0.4 0.1-0.7 0.1-1.1 0.2 0.3-0.1 0.7-0.1 1.1-0.2z m-4.8 0.9c-0.1 0-0.3 0-0.4 0.1 0.2-0.1 0.3-0.1 0.4-0.1z m-4.6 1s-0.1 0 0 0c-0.1 0 0 0 0 0z m-4.1 1.1c-0.2 0.1-0.4 0.1-0.6 0.2 0.2-0.1 0.4-0.2 0.6-0.2z m-4.4 1.2c-0.1 0-0.2 0.1-0.3 0.1 0.1 0 0.2-0.1 0.3-0.1z m-94.7 93.1c-0.1 0.3-0.2 0.5-0.3 0.8 0.1-0.3 0.2-0.6 0.3-0.8z m6.4-16.4c0 0.1-0.1 0.2-0.1 0.3 0-0.1 0.1-0.2 0.1-0.3z m-1.8 4.2s0 0.1 0 0c-0.1 0 0 0 0 0z m-3.2 8.1c-0.1 0.2-0.2 0.5-0.2 0.7 0-0.2 0.1-0.4 0.2-0.7z m207.4 134.6c-47.3 39.7-118.1 33.5-157.8-13.8s-33.5-118.1 13.8-157.8c20.4-17.1 45.5-26.2 71.8-26.2 3.3 0 6.6 0.1 10 0.4 29.8 2.6 56.8 16.7 76 39.6 39.7 47.3 33.5 118.1-13.8 157.8z" fill="#1E1E1E" /></svg>